<svg width="17" height="16" viewBox="0 0 17 16" fill="none" xmlns="http://www.w3.org/2000/svg">
<path fill-rule="evenodd" clip-rule="evenodd" d="M1.53717 7.52857C1.79897 7.26823 2.22344 7.26823 2.48524 7.52857L5.16678 10.1952C5.42858 10.4556 5.42858 10.8777 5.16678 11.138C4.90498 11.3984 4.48051 11.3984 4.21871 11.138L1.53717 8.47138C1.27537 8.21103 1.27537 7.78892 1.53717 7.52857Z" fill="#005FFF"/>
<path fill-rule="evenodd" clip-rule="evenodd" d="M6.2298 8.19526C6.4916 7.93491 6.91606 7.93491 7.17787 8.19526L9.18902 10.1953C9.45082 10.4556 9.45082 10.8777 9.18902 11.1381C8.92722 11.3984 8.50275 11.3984 8.24095 11.1381L6.2298 9.13807C5.968 8.87772 5.968 8.45561 6.2298 8.19526Z" fill="#005FFF"/>
<path fill-rule="evenodd" clip-rule="evenodd" d="M10.5298 4.86195C10.7916 5.1223 10.7916 5.54441 10.5298 5.80476L5.16676 11.1381C4.90496 11.3984 4.48049 11.3984 4.21869 11.1381C3.95689 10.8777 3.95689 10.4556 4.21869 10.1953L9.58177 4.86195C9.84357 4.6016 10.268 4.6016 10.5298 4.86195Z" fill="#005FFF"/>
<path fill-rule="evenodd" clip-rule="evenodd" d="M14.5522 4.86195C14.814 5.1223 14.814 5.54441 14.5522 5.80476L9.1891 11.1381C8.9273 11.3984 8.50283 11.3984 8.24103 11.1381C7.97923 10.8777 7.97923 10.4556 8.24103 10.1953L13.6041 4.86195C13.8659 4.6016 14.2904 4.6016 14.5522 4.86195Z" fill="#005FFF"/>
</svg>
