<svg width="17" height="16" viewBox="0 0 17 16" fill="none" xmlns="http://www.w3.org/2000/svg">
<path fill-rule="evenodd" clip-rule="evenodd" d="M3.53846 7.52864C3.79953 7.26829 4.22282 7.26829 4.48389 7.52864L7.15799 10.1953C7.41906 10.4557 7.41906 10.8778 7.15799 11.1381C6.89691 11.3985 6.47363 11.3985 6.21255 11.1381L3.53846 8.47145C3.27738 8.2111 3.27738 7.78899 3.53846 7.52864Z" fill="#7A7A7A"/>
<path fill-rule="evenodd" clip-rule="evenodd" d="M12.5061 4.86189C12.7672 5.12224 12.7672 5.54435 12.5061 5.8047L7.15796 11.138C6.89689 11.3984 6.4736 11.3984 6.21253 11.138C5.95146 10.8777 5.95146 10.4556 6.21253 10.1952L11.5607 4.86189C11.8218 4.60154 12.2451 4.60154 12.5061 4.86189Z" fill="#7A7A7A"/>
</svg>
