<svg width="20" height="20" viewBox="0 0 20 20" fill="none" xmlns="http://www.w3.org/2000/svg">
<path fill-rule="evenodd" clip-rule="evenodd" d="M10 2.00086C14.4183 2.00086 18 5.58258 18 10.0009L18 11.5C18 12.3284 17.3284 13 16.5 13C15.6716 13 15 12.3284 15 11.5V5.99999H13C10.9797 4.48454 8.1464 4.71367 6.39581 6.53405C4.48172 8.52446 4.54359 11.6897 6.534 13.6038C8.52441 15.5179 11.6896 15.456 13.6037 13.4656C14.2551 14.4256 15.3398 15.0005 16.5 15.0005C18.433 15.0005 20 13.4335 20 11.5005V11.5V10C20 4.477 15.523 0 10 0C4.477 0 0 4.477 0 10C0 15.523 4.477 20 10 20C11.9747 20.0032 13.9056 19.4189 15.5473 18.3215L14.4373 16.6575C13.1232 17.5334 11.5793 18.0009 10 18.0009C5.58172 18.0009 2 14.4191 2 10.0009C2 5.58258 5.58172 2.00086 10 2.00086ZM7 10C7 8.34315 8.34315 7 10 7C11.6568 7 13 8.34315 13 10C13 11.6568 11.6568 13 10 13C8.34315 13 7 11.6568 7 10Z" fill="#7A7A7A"/>
</svg>
